<svg width="100" height="100" viewBox="0 0 100 100" fill="none" xmlns="http://www.w3.org/2000/svg">
<rect width="100" height="100" fill="#FAFAFA"/>
<path d="M50 26C53.1826 26 56.2348 27.2643 58.4853 29.5147C60.7357 31.7652 62 34.8174 62 38C62 41.1826 60.7357 44.2348 58.4853 46.4853C56.2348 48.7357 53.1826 50 50 50C46.8174 50 43.7652 48.7357 41.5147 46.4853C39.2643 44.2348 38 41.1826 38 38C38 34.8174 39.2643 31.7652 41.5147 29.5147C43.7652 27.2643 46.8174 26 50 26ZM50 56C63.26 56 74 61.37 74 68V74H26V68C26 61.37 36.74 56 50 56Z" fill="black"/>
</svg>
